# xmcd
#
# Track frame offsets: 
#        150
#        14256
#        28968
#        45361
#        60099
#        73755
#        85041
#        102514
#        114492
#        139800
#        154421
#        165877
#        182854
#        193623
#        218247
#
# Disc length: 3631 seconds
#
# Revision: 0
# Processed by: cddbd v1.5.2PL0 Copyright (c) Steve Scherf et al.
# Submitted via: ExactAudioCopy v0.99pb3
#
DISCID=c70e2d0f
DTITLE=lio - dites au prince charmant
DYEAR=2006
DGENRE=Ballad
TTITLE0=viel ami
TTITLE1=les hommes me vont si bien
TTITLE2=dites au prince charmant
TTITLE3=le meme sourire
TTITLE4=light
TTITLE5=attend ou va-t'en
TTITLE6=la fin du monde
TTITLE7=dans les bras d'un enfant
TTITLE8=l'age des saisons
TTITLE9=hall de gare
TTITLE10=l'etendue des degats
TTITLE11=mon bebe
TTITLE12=sacre coeur (bonus)
TTITLE13=l'objet du litige (bonus)
TTITLE14=images d'un album (bonus)
EXTD=
EXTT0=
EXTT1=
EXTT2=
EXTT3=
EXTT4=
EXTT5=
EXTT6=
EXTT7=
EXTT8=
EXTT9=
EXTT10=
EXTT11=
EXTT12=
EXTT13=
EXTT14=
PLAYORDER=
